<?xml version="1.0" encoding="UTF-8" standalone="no"?>
<!DOCTYPE svg PUBLIC "-//W3C//DTD SVG 1.1//EN" "http://www.w3.org/Graphics/SVG/1.1/DTD/svg11.dtd">
<svg width="100%" height="100%" viewBox="0 0 511 505" version="1.1" xmlns="http://www.w3.org/2000/svg" xmlns:xlink="http://www.w3.org/1999/xlink" xml:space="preserve" xmlns:serif="http://www.serif.com/" style="fill-rule:evenodd;clip-rule:evenodd;stroke-linejoin:round;stroke-miterlimit:2;">
    <g transform="matrix(1,0,0,1,-11,-75)">
        <g id="Bigger" transform="matrix(1.1215,-1.1215,1.1215,1.1215,-50.4673,243.551)">
            <g id="Mic">
                <g id="ShortBar">
                    <g transform="matrix(1,0,0,1,-160,-127.5)">
                        <path d="M160,230.015L178.742,230.015C179.436,230.015 180,229.452 180,228.758L180,226.242C180,225.548 179.436,224.985 178.742,224.985L160,224.985L160,210.015L178.742,210.015C179.436,210.015 180,209.452 180,208.758L180,206.242C180,205.548 179.436,204.985 178.742,204.985L160,204.985L160,187.5L200,187.5L200,283.212L179.5,283.212C177.016,283.212 175,285.228 175,287.712L175,327.288C175,329.772 177.016,331.788 179.5,331.788L200,331.788L200,427.5L160,427.5L160,230.015Z" style="fill:rgb(48,55,62);"/>
                    </g>
                    <g id="Mesh" transform="matrix(1,0,0,1,0,35)">
                        <path d="M2.736,20C2.736,14.481 10.472,10 20,10C29.528,10 37.264,14.481 37.264,20L2.736,20Z" style="fill:rgb(48,55,62);"/>
                    </g>
                </g>
            </g>
            <g transform="matrix(1,0,0,1,-40,0)">
                <g id="K">
                    <path d="M60,160L60,200L80,200L180,300L180,260L100,180L180,100L180,60L80,160L60,160" style="fill:rgb(48,55,62);"/>
                </g>
            </g>
            <g id="Sound" transform="matrix(1,0,0,1,-20,0)">
                <g transform="matrix(1,0,0,1,-20,0)">
                    <path d="M200,300C266.274,300 320,246.274 320,180C320,113.726 266.274,60 200,60L200,99.6C244.404,99.6 280.4,135.596 280.4,180C280.4,224.404 244.404,260.4 200,260.4L200,300Z" style="fill:rgb(48,55,62);"/>
                </g>
                <g transform="matrix(0.5,0,0,0.5,80,90)">
                    <path d="M200,300C266.274,300 320,246.274 320,180C320,113.726 266.274,60 200,60L200,99.6C244.404,99.6 280.4,135.596 280.4,180C280.4,224.404 244.404,260.4 200,260.4L200,300Z" style="fill:rgb(48,55,62);"/>
                </g>
            </g>
        </g>
    </g>
</svg>
